<svg version="1.1" id="Layer_1" xmlns="http://www.w3.org/2000/svg" xmlns:xlink="http://www.w3.org/1999/xlink" x="0px" y="0px"
	 width="100%" viewBox="0 0 148 117" enable-background="new 0 0 148 117" xml:space="preserve">
<path fill="#000000" opacity="1.000000" stroke="none" 
	d="
M149.000000,50.000000 
	C149.000000,73.000000 149.000000,95.500000 149.000000,118.000000 
	C99.666664,118.000000 50.333332,118.000000 1.000000,118.000000 
	C1.000000,79.000000 1.000000,40.000000 1.000000,1.000000 
	C50.333332,1.000000 99.666664,1.000000 149.000000,1.000000 
	C149.000000,17.166666 149.000000,33.333332 149.000000,50.000000 
M52.500000,7.009741 
	C40.675446,7.009537 28.850838,6.988171 17.026356,7.017328 
	C10.291650,7.033934 4.989072,12.399673 4.985310,19.195246 
	C4.970467,46.008644 5.321935,72.829163 4.765764,99.631027 
	C4.604000,107.426414 11.211167,112.797615 18.186150,112.852455 
	C56.322113,113.152328 94.461700,113.020248 132.599960,112.971367 
	C139.540161,112.962471 144.981033,107.377739 144.981812,100.584473 
	C144.984970,73.271439 144.984695,45.958405 144.981689,18.645370 
	C144.980881,11.173391 140.872314,7.016087 133.440598,7.013324 
	C106.793732,7.003417 80.146866,7.009625 52.500000,7.009741 
z"/>
<path fill="#ACACAC" opacity="1.000000" stroke="none" 
	d="
M53.000000,7.009741 
	C80.146866,7.009625 106.793732,7.003417 133.440598,7.013324 
	C140.872314,7.016087 144.980881,11.173391 144.981689,18.645370 
	C144.984695,45.958405 144.984970,73.271439 144.981812,100.584473 
	C144.981033,107.377739 139.540161,112.962471 132.599960,112.971367 
	C94.461700,113.020248 56.322113,113.152328 18.186150,112.852455 
	C11.211167,112.797615 4.604000,107.426414 4.765764,99.631027 
	C5.321935,72.829163 4.970467,46.008644 4.985310,19.195246 
	C4.989072,12.399673 10.291650,7.033934 17.026356,7.017328 
	C28.850838,6.988171 40.675446,7.009537 53.000000,7.009741 
M15.190806,63.499992 
	C15.193495,74.654900 15.268296,85.810524 15.158582,96.964325 
	C15.121677,100.716248 16.436157,102.348969 20.394661,102.339310 
	C56.856064,102.250336 93.317871,102.248047 129.779236,102.343613 
	C133.674667,102.353828 135.027771,100.976692 135.006760,97.094299 
	C134.886032,74.785103 134.878555,52.474491 135.014999,30.165476 
	C135.038605,26.305696 133.890793,24.970299 129.895554,24.984695 
	C93.434402,25.116093 56.972370,25.119968 20.511248,24.985092 
	C16.256172,24.969353 15.064430,26.545872 15.132044,30.534687 
	C15.312609,41.187065 15.192245,51.844540 15.190806,63.499992 
z"/>
<path fill="#EDEDED" opacity="1.000000" stroke="none" 
	d="
M15.191143,62.999992 
	C15.192245,51.844540 15.312609,41.187065 15.132044,30.534687 
	C15.064430,26.545872 16.256172,24.969353 20.511248,24.985092 
	C56.972370,25.119968 93.434402,25.116093 129.895554,24.984695 
	C133.890793,24.970299 135.038605,26.305696 135.014999,30.165476 
	C134.878555,52.474491 134.886032,74.785103 135.006760,97.094299 
	C135.027771,100.976692 133.674667,102.353828 129.779236,102.343613 
	C93.317871,102.248047 56.856064,102.250336 20.394661,102.339310 
	C16.436157,102.348969 15.121677,100.716248 15.158582,96.964325 
	C15.268296,85.810524 15.193495,74.654900 15.191143,62.999992 
M53.920044,61.290062 
	C54.632927,59.988789 55.333336,58.680496 56.060844,57.387451 
	C59.210854,51.788734 58.178257,45.158169 53.529308,41.185612 
	C49.018227,37.330875 41.589504,36.831352 37.428230,40.102940 
	C32.385777,44.067314 30.548683,50.756706 33.055374,56.025784 
	C35.735546,61.659515 42.357952,64.834991 48.327686,63.357071 
	C50.224766,62.887413 52.127300,62.439766 53.746109,62.643375 
	C48.377445,66.976723 42.749008,66.784813 37.109550,63.359200 
	C33.277805,61.031658 29.420475,61.435150 27.661200,65.148300 
	C25.397272,69.926582 23.587612,75.332642 23.344181,80.550491 
	C23.044777,86.968086 26.664633,89.671112 33.123932,89.758896 
	C38.942463,89.837967 44.773190,89.556396 50.580486,89.824677 
	C67.821953,90.621178 66.225250,86.006493 65.897171,73.050652 
	C65.714912,65.853043 61.312210,62.118515 53.920044,61.290062 
M121.139030,42.112335 
	C107.318283,42.112980 93.497368,42.149387 79.676910,42.086056 
	C76.679222,42.072323 74.983322,42.936115 74.954071,46.306110 
	C74.924759,49.684315 76.202553,51.097298 79.665237,51.071819 
	C93.485222,50.970131 107.306396,51.032249 121.127136,51.029606 
	C123.589600,51.029137 125.887093,50.872044 125.993439,47.505779 
	C126.084663,44.617958 126.002815,41.990463 121.139030,42.112335 
M113.485222,85.197922 
	C115.976959,85.196838 118.471161,85.125549 120.959801,85.212837 
	C123.923325,85.316795 126.071640,84.989883 126.080437,81.055031 
	C126.088989,77.232155 124.466698,76.192535 120.975266,76.219345 
	C107.520668,76.322662 94.064774,76.283340 80.609482,76.247993 
	C77.403473,76.239578 75.083534,76.941071 75.003792,80.847145 
	C74.919067,84.997726 77.490211,85.231865 80.594917,85.216255 
	C91.226067,85.162781 101.857651,85.197472 113.485222,85.197922 
M100.387115,66.720322 
	C101.513039,60.839703 100.979218,60.074947 95.479591,60.030170 
	C89.996811,59.985523 84.504692,59.855587 79.036346,60.140656 
	C77.674370,60.211658 75.251518,61.791962 75.289284,62.584511 
	C75.386391,64.622253 76.583984,68.341873 77.351929,68.344437 
	C84.844101,68.369453 92.338356,67.769943 100.387115,66.720322 
M125.520721,60.912144 
	C121.448982,60.616596 117.379707,60.278728 113.304535,60.042282 
	C111.064514,59.912312 108.924286,59.908169 108.937584,63.201008 
	C108.949661,66.196251 109.661842,68.536240 113.031174,68.903969 
	C115.000854,69.118935 117.009949,68.999107 119.001038,68.986526 
	C125.446465,68.945801 126.048256,68.297211 125.520721,60.912144 
z"/>
<path fill="#ABABAB" opacity="1.000000" stroke="none" 
	d="
M53.975449,62.031399 
	C61.312210,62.118515 65.714912,65.853043 65.897171,73.050652 
	C66.225250,86.006493 67.821953,90.621178 50.580486,89.824677 
	C44.773190,89.556396 38.942463,89.837967 33.123932,89.758896 
	C26.664633,89.671112 23.044777,86.968086 23.344181,80.550491 
	C23.587612,75.332642 25.397272,69.926582 27.661200,65.148300 
	C29.420475,61.435150 33.277805,61.031658 37.109550,63.359200 
	C42.749008,66.784813 48.377445,66.976723 53.872322,62.323437 
	C53.998531,62.003498 53.975449,62.031399 53.975449,62.031399 
z"/>
<path fill="#ABABAB" opacity="1.000000" stroke="none" 
	d="
M54.012932,61.992775 
	C52.127300,62.439766 50.224766,62.887413 48.327686,63.357071 
	C42.357952,64.834991 35.735546,61.659515 33.055374,56.025784 
	C30.548683,50.756706 32.385777,44.067314 37.428230,40.102940 
	C41.589504,36.831352 49.018227,37.330875 53.529308,41.185612 
	C58.178257,45.158169 59.210854,51.788734 56.060844,57.387451 
	C55.333336,58.680496 54.632927,59.988789 53.947746,61.660728 
	C53.975449,62.031399 53.998531,62.003498 54.012932,61.992775 
z"/>
<path fill="#ADADAD" opacity="1.000000" stroke="none" 
	d="
M121.594566,42.119896 
	C126.002815,41.990463 126.084663,44.617958 125.993439,47.505779 
	C125.887093,50.872044 123.589600,51.029137 121.127136,51.029606 
	C107.306396,51.032249 93.485222,50.970131 79.665237,51.071819 
	C76.202553,51.097298 74.924759,49.684315 74.954071,46.306110 
	C74.983322,42.936115 76.679222,42.072323 79.676910,42.086056 
	C93.497368,42.149387 107.318283,42.112980 121.594566,42.119896 
z"/>
<path fill="#AAAAAA" opacity="1.000000" stroke="none" 
	d="
M112.987152,85.198227 
	C101.857651,85.197472 91.226067,85.162781 80.594917,85.216255 
	C77.490211,85.231865 74.919067,84.997726 75.003792,80.847145 
	C75.083534,76.941071 77.403473,76.239578 80.609482,76.247993 
	C94.064774,76.283340 107.520668,76.322662 120.975266,76.219345 
	C124.466698,76.192535 126.088989,77.232155 126.080437,81.055031 
	C126.071640,84.989883 123.923325,85.316795 120.959801,85.212837 
	C118.471161,85.125549 115.976959,85.196838 112.987152,85.198227 
z"/>
<path fill="#ABABAB" opacity="1.000000" stroke="none" 
	d="
M100.109573,67.034271 
	C92.338356,67.769943 84.844101,68.369453 77.351929,68.344437 
	C76.583984,68.341873 75.386391,64.622253 75.289284,62.584511 
	C75.251518,61.791962 77.674370,60.211658 79.036346,60.140656 
	C84.504692,59.855587 89.996811,59.985523 95.479591,60.030170 
	C100.979218,60.074947 101.513039,60.839703 100.109573,67.034271 
z"/>
<path fill="#AAAAAA" opacity="1.000000" stroke="none" 
	d="
M125.675919,61.315132 
	C126.048256,68.297211 125.446465,68.945801 119.001038,68.986526 
	C117.009949,68.999107 115.000854,69.118935 113.031174,68.903969 
	C109.661842,68.536240 108.949661,66.196251 108.937584,63.201008 
	C108.924286,59.908169 111.064514,59.912312 113.304535,60.042282 
	C117.379707,60.278728 121.448982,60.616596 125.675919,61.315132 
z"/>
</svg>